<svg width="684" height="120" viewBox="0 0 684 120" version="1.1" xmlns="http://www.w3.org/2000/svg" xmlns:xlink="http://www.w3.org/1999/xlink"><title>logo-horizontal-white</title><desc></desc><g stroke="none" stroke-width="1" fill="none" fill-rule="evenodd"><path d="M582.6649,51.4923 C582.6649,62.5373 615.3139,55.8613 615.3139,78.3143 C615.3139,90.4513 604.7539,97.0063 591.6459,97.0063 C579.5089,97.0063 570.7709,91.5443 566.8869,82.8053 L578.1749,76.2513 C580.1169,81.7133 584.9709,84.9903 591.6459,84.9903 C597.4719,84.9903 601.9629,83.0483 601.9629,78.1933 C601.9629,67.3913 569.3139,73.4603 569.3139,51.7353 C569.3139,40.3263 579.1449,33.1653 591.5249,33.1653 C601.4769,33.1653 609.7309,37.7773 613.9779,45.7883 L602.9339,51.9773 C600.7489,47.2443 596.5009,45.0593 591.5249,45.0593 C586.7919,45.0593 582.6649,47.1233 582.6649,51.4923 Z M181.7904,84.1408 C189.0724,84.1408 195.0194,80.3778 197.9324,74.7948 L209.2204,81.2278 C204.1224,90.8158 193.8064,97.0058 181.9124,97.0058 C163.5844,97.0058 149.8704,83.0478 149.8704,65.0848 C149.8704,47.0018 163.5844,33.1648 181.9124,33.1648 C193.8064,33.1648 204.1224,39.3558 208.9774,48.8228 L197.6894,55.3758 C195.0194,49.6708 189.0724,46.0308 181.7904,46.0308 C171.1094,46.0308 162.9784,54.1618 162.9784,65.0848 C162.9784,76.0088 171.1094,84.1408 181.7904,84.1408 Z M59.764,0 C92.771,0 119.528,26.758 119.528,59.764 C119.528,92.771 92.771,119.527 59.764,119.527 C26.758,119.527 0,92.771 0,59.764 C0,26.758 26.758,0 59.764,0 Z M59.724,106.381 C85.47,106.381 106.341,85.51 106.341,59.764 C106.341,34.018 85.47,13.147 59.724,13.147 C33.978,13.147 13.107,34.018 13.107,59.764 C13.107,85.51 33.978,106.381 59.724,106.381 Z M58.3543,57.5294 L83.0613,33.7104 L88.8893,39.5384 L58.8293,74.8654 L40.4693,54.9004 L46.2973,49.0714 L58.3543,57.5294 Z M218.9653,95.4278 L218.9653,10.4688 L232.0733,10.4688 L232.0733,95.4278 L218.9653,95.4278 Z M275.0384,33.1649 C292.8794,33.1649 307.0804,47.0019 307.0804,65.0849 C307.0804,83.0479 292.8794,97.0059 275.0384,97.0059 C257.3184,97.0059 242.9974,83.0479 242.9974,65.0849 C242.9974,47.0019 257.3184,33.1649 275.0384,33.1649 Z M275.0384,84.2619 C285.7194,84.2619 293.9724,76.1299 293.9724,65.0849 C293.9724,54.0409 285.7194,45.9089 275.0384,45.9089 C264.3574,45.9089 256.1044,54.0409 256.1044,65.0849 C256.1044,76.1299 264.3574,84.2619 275.0384,84.2619 Z M348.056,84.1408 C355.338,84.1408 361.285,80.3778 364.198,74.7948 L375.486,81.2278 C370.388,90.8158 360.072,97.0058 348.178,97.0058 C329.85,97.0058 316.136,83.0478 316.136,65.0848 C316.136,47.0018 329.85,33.1648 348.178,33.1648 C360.072,33.1648 370.388,39.3558 375.243,48.8228 L363.955,55.3758 C361.285,49.6708 355.338,46.0308 348.056,46.0308 C337.375,46.0308 329.244,54.1618 329.244,65.0848 C329.244,76.0088 337.375,84.1408 348.056,84.1408 Z M438.1878,34.7433 L413.2108,61.6573 L439.1588,95.4283 L422.1958,95.4283 L404.3018,71.2573 L398.6218,77.3783 L398.6218,95.4283 L385.5138,95.4283 L385.5138,10.4693 L398.6218,10.4693 L398.6218,59.4443 L422.1668,34.7433 L438.1878,34.7433 Z M506.9803,76.6154 L518.8753,34.7434 L532.7103,34.7434 L513.6553,95.4274 L500.7913,95.4274 L488.1683,54.5264 L475.4243,95.4274 L462.5593,95.4274 L443.5043,34.7434 L457.3403,34.7434 L469.1133,76.6154 L481.8573,34.7434 L494.3573,34.7434 L506.9803,76.6154 Z M549.6268,8.8918 C554.2388,8.8918 558.0018,12.6548 558.0018,17.2658 C558.0018,21.7568 554.2388,25.6408 549.6268,25.6408 C545.0148,25.6408 541.2528,21.7568 541.2528,17.2658 C541.2528,12.6548 545.0148,8.8918 549.6268,8.8918 Z M543.0733,95.4278 L543.0733,34.7428 L556.1813,34.7428 L556.1813,95.4278 L543.0733,95.4278 Z M684.0005,65.0853 C684.0005,66.4193 683.9335,67.7303 683.8005,69.0163 L636.1095,69.0193 C636.8315,77.6713 643.9685,84.9903 653.8855,84.9903 C661.1085,84.9903 665.4395,82.2813 667.9275,77.9233 L682.2675,77.9263 C678.9115,89.9203 667.6035,97.0063 653.8855,97.0063 C636.1655,97.0063 622.8075,83.0483 622.8075,65.0853 C622.8075,47.0023 636.1655,33.1653 653.8855,33.1653 C671.7255,33.1653 684.0005,47.0023 684.0005,65.0853 Z M636.9545,58.8263 L669.9495,58.8263 C669.2275,51.2883 662.8925,45.0593 653.8855,45.0593 C644.5295,45.0593 638.2755,51.6083 636.9545,58.8263 Z" id="logo-horizontal-white" fill="#FFF"/></g></svg>